# Blender 4.1.1
# www.blender.org
mtllib small.mtl
o Cube
v 0.125570 -0.016338 -0.150929
v 0.103084 -0.010645 0.149347
v -0.147292 -0.009044 0.133632
v -0.096942 -0.016002 -0.117017
v 0.182526 0.151725 -0.143296
v 0.062161 0.144580 0.211935
v -0.142769 0.164493 0.154835
v -0.095461 0.165264 -0.207420
v 0.146357 -0.022064 -0.020719
v 0.009417 -0.010180 -0.109693
v 0.168051 0.075354 -0.171036
v -0.021639 -0.016030 0.172058
v 0.161738 0.066925 0.193422
v -0.153249 -0.035563 -0.016584
v -0.230729 0.063281 0.119502
v -0.166002 0.067418 -0.158698
v 0.136560 0.174518 0.006705
v 0.014736 0.157755 -0.221909
v -0.048279 0.161333 0.242200
v -0.164793 0.182454 0.001372
v -0.002210 -0.043779 -0.008434
v 0.006455 0.189219 -0.035522
v 0.164525 0.096946 0.023665
v 0.036411 0.063370 0.191163
v -0.230843 0.060175 -0.008964
v -0.027975 0.047155 -0.215099
v 0.141241 -0.017704 0.065836
v -0.045004 -0.008443 -0.098286
v 0.194016 0.113061 -0.165454
v -0.075302 -0.008120 0.161613
v 0.131085 0.094856 0.199709
v -0.120731 -0.030688 -0.075195
v -0.179422 0.123759 0.170531
v -0.136434 0.129650 -0.200402
v 0.113184 0.188498 0.126291
v -0.024499 0.160604 -0.252163
v -0.085440 0.160713 0.185903
v -0.189843 0.174305 -0.100359
v 0.145883 -0.026669 -0.089301
v 0.065653 -0.020000 -0.143753
v 0.151378 0.024516 -0.180258
v 0.034102 -0.019807 0.166750
v 0.142042 0.025689 0.183813
v -0.161802 -0.030499 0.064326
v -0.219988 0.015439 0.107899
v -0.148859 0.010433 -0.142185
v 0.172474 0.170361 -0.083226
v 0.107864 0.157107 -0.181958
v -0.009139 0.154410 0.251446
v -0.164700 0.179372 0.090493
v -0.066671 -0.038366 -0.005235
v 0.067259 -0.043696 -0.015548
v 0.024191 -0.026386 -0.074544
v -0.014878 -0.038409 0.083435
v -0.027721 0.190453 0.088314
v 0.008820 0.178683 -0.139204
v 0.085610 0.189328 -0.040709
v -0.084468 0.188102 -0.001579
v 0.177445 0.088302 0.141170
v 0.177395 0.084029 -0.096562
v 0.177646 0.033753 -0.008944
v 0.147128 0.149590 0.027652
v -0.146100 0.056410 0.180543
v 0.093384 0.061591 0.202816
v -0.018917 0.021935 0.210703
v -0.009362 0.091288 0.224307
v -0.246386 0.044746 -0.101446
v -0.230508 0.064766 0.064263
v -0.216782 -0.021532 -0.035782
v -0.207628 0.149592 0.006346
v -0.108564 0.069658 -0.196350
v 0.077884 0.062897 -0.209510
v 0.021452 0.117495 -0.256512
v -0.025272 0.008532 -0.172746
v -0.088329 -0.031686 0.082926
v -0.094909 0.186158 0.097746
v 0.156230 0.149505 0.137335
v -0.132231 0.104107 0.194928
v -0.240722 0.128311 -0.097969
v -0.105147 0.020868 -0.157221
v -0.050356 -0.030755 -0.083545
v 0.076728 -0.039776 -0.092067
v 0.053684 -0.041741 0.074644
v 0.047989 0.191924 0.120917
v 0.112219 0.186664 -0.100333
v -0.076185 0.180607 -0.124517
v 0.188673 0.026567 0.104555
v 0.185331 0.017833 -0.119848
v 0.199296 0.125609 -0.098985
v -0.098937 0.026689 0.188571
v 0.069198 0.021481 0.195924
v 0.073386 0.096797 0.197463
v -0.188501 -0.011018 -0.113132
v -0.217053 0.004692 0.068270
v -0.200805 0.142394 0.104549
v -0.036848 0.128349 -0.240348
v 0.112285 0.119044 -0.214002
v 0.071780 0.016057 -0.167774
vn 0.2401 -0.8268 -0.5086
vn 0.3152 -0.8646 0.3913
vn -0.2929 -0.8343 0.4670
vn 0.0763 -0.8295 -0.5532
vn 0.5839 0.7316 -0.3519
vn 0.4117 0.5341 0.7384
vn -0.3190 0.8433 0.4325
vn -0.2694 0.8430 -0.4656
vn 0.5107 -0.8574 0.0629
vn -0.1263 -0.8998 -0.4177
vn 0.7693 -0.2139 -0.6021
vn -0.1137 -0.8860 0.4496
vn 0.6556 0.0009 0.7552
vn -0.1198 -0.9920 -0.0402
vn -0.9048 -0.0399 0.4239
vn -0.5304 -0.2824 -0.7993
vn 0.4783 0.8723 0.1015
vn 0.2586 0.8263 -0.5004
vn -0.2627 0.7604 0.5939
vn -0.2826 0.9592 0.0065
vn -0.0305 -0.9967 -0.0751
vn -0.0124 0.9984 -0.0549
vn 0.9811 0.1866 0.0516
vn -0.0060 -0.1722 0.9850
vn -0.9946 -0.0110 0.1037
vn -0.1071 -0.6083 -0.7865
vn 0.4758 -0.8706 0.1254
vn 0.0101 -0.8112 -0.5847
vn 0.8620 -0.0365 -0.5055
vn -0.1884 -0.8567 0.4802
vn 0.4112 0.2637 0.8725
vn -0.0712 -0.9740 -0.2150
vn -0.6190 0.3658 0.6950
vn -0.5627 0.1606 -0.8109
vn 0.2784 0.9428 0.1834
vn 0.0823 0.6572 -0.7492
vn -0.3155 0.8741 0.3694
vn -0.3826 0.9067 -0.1777
vn 0.4090 -0.9086 -0.0845
vn -0.2246 -0.8084 -0.5441
vn 0.4421 -0.4913 -0.7505
vn 0.0915 -0.8916 0.4434
vn 0.4415 -0.6349 0.6340
vn -0.2368 -0.9526 0.1909
vn -0.7012 -0.6077 0.3728
vn -0.2305 -0.5636 -0.7932
vn 0.5278 0.8494 0.0077
vn 0.2356 0.8422 -0.4850
vn 0.1348 0.5288 0.8379
vn -0.3438 0.9253 0.1600
vn -0.0571 -0.9982 -0.0201
vn 0.0934 -0.9949 -0.0379
vn -0.1092 -0.9577 -0.2661
vn -0.0684 -0.9861 0.1511
vn -0.0542 0.9954 0.0793
vn 0.0315 0.9847 -0.1711
vn 0.0988 0.9951 -0.0091
vn -0.0516 0.9983 -0.0275
vn 0.9265 0.3038 0.2221
vn 0.9787 -0.2035 0.0269
vn 0.9814 -0.1904 0.0236
vn 0.8794 0.4590 0.1267
vn -0.4008 -0.2771 0.8733
vn -0.0125 -0.0898 0.9959
vn -0.0969 -0.1655 0.9814
vn 0.0353 -0.5287 0.8481
vn -0.8878 -0.2364 -0.3949
vn -0.9979 0.0640 0.0093
vn -0.5164 -0.8538 -0.0660
vn -0.7825 0.6148 0.0984
vn -0.3999 -0.4268 -0.8111
vn 0.2317 -0.4685 -0.8525
vn 0.0928 0.1154 -0.9890
vn -0.0687 -0.8895 -0.4517
vn -0.0783 -0.9792 0.1872
vn -0.0706 0.9860 0.1511
vn 0.7396 0.6013 0.3025
vn -0.4155 -0.0426 0.9086
vn -0.8770 0.3978 -0.2695
vn -0.1870 -0.7057 -0.6834
vn 0.0295 -0.9340 -0.3561
vn -0.0308 -0.9874 -0.1554
vn 0.1099 -0.9850 0.1330
vn 0.0367 0.9881 0.1492
vn 0.1373 0.9812 -0.1356
vn -0.0446 0.9919 -0.1186
vn 0.8639 -0.4817 0.1468
vn 0.8839 -0.4229 -0.1999
vn 0.9929 0.0758 0.0912
vn -0.2813 -0.3350 0.8992
vn 0.1457 -0.4454 0.8834
vn 0.0992 -0.2199 0.9705
vn -0.3409 -0.8088 -0.4791
vn -0.7357 -0.6547 0.1733
vn -0.7765 0.5801 0.2458
vn -0.2522 -0.0163 -0.9675
vn 0.4424 0.2370 -0.8649
vn -0.0338 -0.6962 -0.7171
vt 0.137636 0.563411
vt 0.082613 0.506661
vt 0.152906 0.498683
vt 0.155028 0.344089
vt 0.155630 0.402329
vt 0.099783 0.387655
vt 0.896175 0.282885
vt 0.794976 0.248970
vt 0.870663 0.174892
vt 0.944083 0.694636
vt 0.916733 0.604517
vt 0.949240 0.587705
vt 0.369246 0.000842
vt 0.460672 0.063535
vt 0.336809 0.082005
vt 0.485748 0.254952
vt 0.481603 0.323059
vt 0.447322 0.276247
vt 0.215363 0.578539
vt 0.270084 0.523882
vt 0.276846 0.583529
vt 0.226456 0.694739
vt 0.266533 0.646047
vt 0.288525 0.695621
vt 0.060049 0.668982
vt 0.140662 0.629249
vt 0.149628 0.688747
vt 0.046020 0.277128
vt 0.042023 0.402498
vt 0.011393 0.383384
vt 0.226136 0.127633
vt 0.116225 0.149680
vt 0.133867 0.094672
vt 0.335575 0.267841
vt 0.206193 0.274302
vt 0.273683 0.187557
vt 0.422948 0.654063
vt 0.477461 0.726331
vt 0.404599 0.713241
vt 0.529375 0.479105
vt 0.439840 0.553878
vt 0.422729 0.459207
vt 0.672331 0.787452
vt 0.731678 0.707183
vt 0.744126 0.814485
vt 0.006598 0.482318
vt 0.090851 0.431859
vt 0.016271 0.536299
vt 0.857058 0.070133
vt 0.818683 0.137473
vt 0.786060 0.070157
vt 0.720806 0.251159
vt 0.758736 0.168010
vt 0.829103 0.182611
vt 0.348488 0.225548
vt 0.408067 0.318081
vt 0.834672 0.401576
vt 0.758928 0.488146
vt 0.747834 0.361119
vt 0.844101 0.700647
vt 0.766456 0.640000
vt 0.853441 0.628842
vt 0.491069 0.166304
vt 0.554998 0.057463
vt 0.642437 0.169965
vt 0.608937 0.072162
vt 0.661203 0.071636
vt 0.628288 0.255903
vt 0.560004 0.310321
vt 0.556413 0.271543
vt 0.223692 0.502410
vt 0.220811 0.635843
vt 0.058285 0.569867
vt 0.115533 0.299946
vt 0.165692 0.199396
vt 0.258354 0.321530
vt 0.934356 0.187628
vt 0.907061 0.133559
vt 0.539575 0.580737
vt 0.617335 0.678426
vt 0.520455 0.684734
vt 0.622627 0.581780
vt 0.672331 0.661064
vt 0.869574 0.490922
vt 0.939564 0.506329
vt 0.744126 0.821215
vt 0.791426 0.711743
vt 0.791582 0.866218
vt 0.999879 0.706758
vt 1.000000 0.606532
vt 0.431026 0.176751
vt 0.672331 0.596657
vt 0.677773 0.459778
vt 0.674914 0.687648
vt 0.565426 0.199969
vt 0.387737 0.801509
vt 0.336920 0.785916
vt 0.384519 0.726331
vt 0.506205 0.350977
vt 0.512673 0.310590
vt 0.619708 0.321108
vt 0.559475 0.342029
vt 0.324683 0.722893
vt 0.320949 0.673747
vt 0.218381 0.752553
vt 0.278588 0.749240
vt 0.143231 0.752483
vt 0.069266 0.722735
vt 0.808347 0.361119
vt 0.854473 0.349296
vt 0.056221 0.145884
vt 0.000000 0.241327
vt 0.085645 0.065345
vt 0.116277 0.014773
vt 0.187902 0.035191
vt 0.316518 0.068429
vt 0.273048 0.064123
vt 0.336809 0.140426
vt 0.336809 0.674909
vt 0.340137 0.610197
vt 0.339988 0.536299
vt 0.336833 0.476818
vt 0.353162 0.419686
vt 0.517650 0.412671
vt 0.429528 0.400325
vt 0.604166 0.482239
vt 0.586459 0.423461
vt 0.646477 0.441109
vt 0.000000 0.608449
vt 0.053708 0.620010
vt 0.736508 0.092307
vt 0.012308 0.682984
vt 0.913859 0.076969
vt 0.855242 0.125920
vt 0.448079 0.354288
vt 0.232244 0.440506
vt 0.685316 0.388716
vt 0.130148 0.436240
vt 0.867108 0.417288
vt 0.821728 0.494375
vt 0.905653 0.682602
vt 0.489191 0.000000
vt 0.563922 0.000091
vt 0.582099 0.007382
vt 0.207942 0.000000
vt 0.579472 0.365264
vt 0.639569 0.392860
vt 0.693822 0.237100
vt 0.693981 0.150197
vt 0.668575 0.311882
vt 0.206316 0.378186
vt 0.683844 0.711964
vt 0.054401 0.402498
vt 0.693981 0.268226
vt 0.766741 0.707183
vt 0.662917 0.562066
vt 0.752056 0.707183
vt 0.336809 0.833560
vt 0.609960 0.361119
vt 0.670954 0.491413
vt 0.694133 0.143704
vt 0.019832 0.742597
vt 0.291247 0.454530
vt 0.293309 0.025246
vt 0.477201 0.361119
s 1
usemtl Material
f 75/1/75 3/2/3 44/3/44
f 76/4/76 7/5/7 37/6/37
f 77/7/77 6/8/6 31/9/31
f 37/10/37 33/11/33 78/12/78
f 38/13/38 34/14/34 79/15/79
f 80/16/80 4/17/4 46/18/46
f 51/19/51 32/20/32 81/21/81
f 52/22/52 53/23/53 82/24/82
f 42/25/42 54/26/54 83/27/83
f 84/28/84 19/29/19 49/30/49
f 56/31/56 57/32/57 85/33/85
f 38/34/38 58/35/58 86/36/86
f 87/37/87 13/38/13 43/39/43
f 60/40/60 61/41/61 88/42/88
f 47/43/47 62/44/62 89/45/89
f 63/46/63 45/47/45 90/48/90
f 91/49/91 24/50/24 65/51/65
f 49/52/49 66/53/66 92/54/92
f 67/55/67 46/18/46 93/56/93
f 94/57/94 25/58/25 69/59/69
f 50/60/50 70/61/70 95/62/95
f 71/63/71 34/14/34 96/64/96
f 72/65/72 73/66/73 97/67/97
f 98/68/98 10/69/10 74/70/74
f 51/19/51 44/3/44 14/71/14
f 54/26/54 51/19/51 21/72/21
f 54/26/54 30/73/30 75/1/75
f 55/74/55 37/6/37 19/29/19
f 58/35/58 55/74/55 22/75/22
f 20/76/20 76/4/76 58/35/58
f 59/77/59 31/9/31 13/78/13
f 23/79/23 77/80/77 59/81/59
f 62/82/62 35/83/35 77/80/77
f 78/12/78 15/84/15 63/85/63
f 66/86/66 63/87/63 24/88/24
f 19/89/19 78/12/78 66/90/66
f 79/15/79 16/91/16 67/55/67
f 25/58/25 79/92/79 67/93/67
f 70/61/70 38/94/38 79/92/79
f 80/16/80 16/91/16 71/63/71
f 26/95/26 80/16/80 71/63/71
f 74/96/74 28/97/28 80/98/80
f 81/99/81 4/17/4 28/100/28
f 10/69/10 81/99/81 28/100/28
f 21/72/21 81/21/81 53/23/53
f 40/101/40 53/102/53 10/69/10
f 1/103/1 82/24/82 40/104/40
f 9/105/9 82/24/82 39/106/39
f 83/27/83 21/72/21 52/22/52
f 27/107/27 52/22/52 9/105/9
f 2/108/2 83/27/83 27/107/27
f 84/109/84 6/8/6 35/110/35
f 17/111/17 84/28/84 35/112/35
f 22/75/22 84/28/84 57/32/57
f 47/113/47 57/32/57 17/111/17
f 5/114/5 85/33/85 47/113/47
f 48/115/48 56/31/56 85/33/85
f 86/36/86 22/75/22 56/31/56
f 36/116/36 56/31/56 18/117/18
f 8/118/8 86/36/86 36/116/36
f 87/37/87 2/119/2 27/120/27
f 61/41/61 27/120/27 9/121/9
f 23/79/23 87/37/87 61/41/61
f 88/42/88 9/121/9 39/122/39
f 1/123/1 88/42/88 39/122/39
f 11/124/11 88/42/88 41/125/41
f 89/126/89 23/79/23 60/40/60
f 29/127/29 60/40/60 11/124/11
f 5/128/5 89/126/89 29/127/29
f 90/48/90 3/2/3 30/73/30
f 65/129/65 30/73/30 12/130/12
f 24/50/24 90/131/90 65/51/65
f 42/25/42 65/129/65 12/130/12
f 2/108/2 91/132/91 42/25/42
f 43/133/43 64/134/64 91/49/91
f 92/54/92 24/50/24 64/134/64
f 31/9/31 64/134/64 13/78/13
f 6/8/6 92/54/92 31/9/31
f 93/56/93 4/17/4 32/135/32
f 69/136/69 32/20/32 14/71/14
f 69/59/69 67/93/67 93/137/93
f 44/3/44 69/136/69 14/71/14
f 3/2/3 94/138/94 44/3/44
f 45/139/45 68/140/68 94/57/94
f 68/140/68 70/61/70 25/58/25
f 15/84/15 95/62/95 68/140/68
f 7/141/7 95/62/95 33/11/33
f 96/64/96 8/142/8 36/143/36
f 18/144/18 96/64/96 36/143/36
f 26/95/26 96/64/96 73/66/73
f 97/145/97 18/117/18 48/115/48
f 5/128/5 97/146/97 48/147/48
f 11/124/11 97/146/97 29/127/29
f 98/68/98 26/95/26 72/65/72
f 41/148/41 72/65/72 11/149/11
f 1/150/1 98/68/98 41/148/41
f 75/1/75 30/73/30 3/2/3
f 76/4/76 50/151/50 7/5/7
f 77/7/77 35/110/35 6/8/6
f 37/10/37 7/141/7 33/11/33
f 38/13/38 8/142/8 34/14/34
f 80/16/80 28/100/28 4/17/4
f 51/19/51 14/71/14 32/20/32
f 52/22/52 21/72/21 53/23/53
f 42/25/42 12/130/12 54/26/54
f 84/28/84 55/74/55 19/29/19
f 56/31/56 22/75/22 57/32/57
f 38/34/38 20/76/20 58/35/58
f 87/37/87 59/81/59 13/38/13
f 60/40/60 23/79/23 61/41/61
f 47/43/47 17/152/17 62/44/62
f 63/46/63 15/153/15 45/47/45
f 91/49/91 64/134/64 24/50/24
f 49/52/49 19/154/19 66/53/66
f 67/55/67 16/91/16 46/18/46
f 94/57/94 68/140/68 25/58/25
f 50/60/50 20/155/20 70/61/70
f 71/63/71 16/91/16 34/14/34
f 72/65/72 26/95/26 73/66/73
f 98/68/98 40/101/40 10/69/10
f 51/19/51 75/1/75 44/3/44
f 54/26/54 75/1/75 51/19/51
f 54/26/54 12/130/12 30/73/30
f 55/74/55 76/4/76 37/6/37
f 58/35/58 76/4/76 55/74/55
f 20/76/20 50/151/50 76/4/76
f 59/77/59 77/7/77 31/9/31
f 23/79/23 62/82/62 77/80/77
f 62/82/62 17/156/17 35/83/35
f 78/12/78 33/11/33 15/84/15
f 66/86/66 78/157/78 63/87/63
f 19/89/19 37/10/37 78/12/78
f 79/15/79 34/14/34 16/91/16
f 25/58/25 70/61/70 79/92/79
f 70/61/70 20/155/20 38/94/38
f 80/16/80 46/18/46 16/91/16
f 26/95/26 74/70/74 80/16/80
f 74/96/74 10/158/10 28/97/28
f 81/99/81 32/135/32 4/17/4
f 10/69/10 53/102/53 81/99/81
f 21/72/21 51/19/51 81/21/81
f 40/101/40 82/159/82 53/102/53
f 1/103/1 39/106/39 82/24/82
f 9/105/9 52/22/52 82/24/82
f 83/27/83 54/26/54 21/72/21
f 27/107/27 83/27/83 52/22/52
f 2/108/2 42/25/42 83/27/83
f 84/109/84 49/52/49 6/8/6
f 17/111/17 57/32/57 84/28/84
f 22/75/22 55/74/55 84/28/84
f 47/113/47 85/33/85 57/32/57
f 5/114/5 48/115/48 85/33/85
f 48/115/48 18/117/18 56/31/56
f 86/36/86 58/35/58 22/75/22
f 36/116/36 86/36/86 56/31/56
f 8/118/8 38/34/38 86/36/86
f 87/37/87 43/39/43 2/119/2
f 61/41/61 87/37/87 27/120/27
f 23/79/23 59/81/59 87/37/87
f 88/42/88 61/41/61 9/121/9
f 1/123/1 41/125/41 88/42/88
f 11/124/11 60/40/60 88/42/88
f 89/126/89 62/82/62 23/79/23
f 29/127/29 89/126/89 60/40/60
f 5/128/5 47/160/47 89/126/89
f 90/48/90 45/47/45 3/2/3
f 65/129/65 90/48/90 30/73/30
f 24/50/24 63/161/63 90/131/90
f 42/25/42 91/132/91 65/129/65
f 2/108/2 43/162/43 91/132/91
f 43/133/43 13/78/13 64/134/64
f 92/54/92 66/53/66 24/50/24
f 31/9/31 92/54/92 64/134/64
f 6/8/6 49/52/49 92/54/92
f 93/56/93 46/18/46 4/17/4
f 69/136/69 93/163/93 32/20/32
f 69/59/69 25/58/25 67/93/67
f 44/3/44 94/138/94 69/136/69
f 3/2/3 45/47/45 94/138/94
f 45/139/45 15/84/15 68/140/68
f 68/140/68 95/62/95 70/61/70
f 15/84/15 33/11/33 95/62/95
f 7/141/7 50/60/50 95/62/95
f 96/64/96 34/14/34 8/142/8
f 18/144/18 73/66/73 96/64/96
f 26/95/26 71/63/71 96/64/96
f 97/145/97 73/164/73 18/117/18
f 5/128/5 29/127/29 97/146/97
f 11/124/11 72/165/72 97/146/97
f 98/68/98 74/70/74 26/95/26
f 41/148/41 98/68/98 72/65/72
f 1/150/1 40/101/40 98/68/98
